<svg id="a" enable-background="new 0 0 2586 611.7" version="1.0" viewBox="0 0 2586 611.7" xml:space="preserve" xmlns="http://www.w3.org/2000/svg">
<style type="text/css">
	.st0{fill:#494368;}
	.st1{fill:#F3D400;}
	.st2{fill:#FFE953;}
</style>
<path id="b" class="st0" d="m967.3 101c11.7 0 21.4 4.1 29.6 12.3s12.3 18.2 12.3 29.6v145.4h-148.5c-11.7 0-21.4-4.1-29.6-12.3s-12.3-18.2-12.3-29.6v-69.2h155.6v-34.3c0-2.1-0.6-3.5-2.1-5s-2.9-2.1-5-2.1h-148.5v-34.8h148.5zm7.1 152.4v-41.3h-120.8v34.3c0 2.1 0.6 3.5 2.1 5s2.9 2.1 5 2.1l113.7-0.1zm336.1-152.4h37.2l-70.3 187.3h-28.4l-63-139.2-59.5 139.2-0.6-0.3 0.3 0.3h-28.1l-73.6-187.3h36.9l50.7 124.3 53.9-124.3h39.9l57.1 124.3 47.5-124.3zm197 0c11.7 0 21.4 4.1 29.6 12.3s12.3 18.2 12.3 29.6v69.2h-155.6v34.3c0 2.1 0.6 3.5 2.1 5s2.9 2.1 5 2.1h148.6v34.9h-148.6c-11.7 0-21.4-4.1-29.6-12.3s-12.3-18.2-12.3-29.6v-103.6c0-11.7 4.1-21.4 12.3-29.6s18.2-12.3 29.6-12.3h106.6zm-113.7 76.2h120.7v-34.3c0-2.1-0.6-3.5-2.1-5s-2.9-2.1-5-2.1h-106.7c-2.1 0-3.5 0.6-5 2.1s-2.1 2.9-2.1 5v34.3h0.2zm378-34v7h-34.9v-7c0-2.1-0.6-3.5-2.1-5s-2.9-2.1-5-2.1h-106.7c-2.1 0-3.5 0.6-5 2.1s-2.1 2.9-2.1 5v27.3c0 2.1 0.6 3.5 2.1 5s2.9 2.1 5 2.1h106.7c11.7 0 21.4 4.1 29.6 12.3s12.3 18.2 12.3 29.6v27.3c0 11.7-4.1 21.4-12.3 29.6s-18.2 12.3-29.6 12.3h-106.7c-11.7 0-21.4-4.1-29.6-12.3s-12.3-18.2-12.3-29.6v-7h34.9v7c0 2.1 0.6 3.5 2.1 5s2.9 2.1 5 2.1h106.7c2.1 0 3.5-0.6 5-2.1s2.1-2.9 2.1-5v-27.3c0-2.1-0.6-3.5-2.1-5s-2.9-2.1-5-2.1h-106.7c-11.7 0-21.4-4.1-29.6-12.3s-12.3-18.2-12.3-29.6v-27.3c0-11.7 4.1-21.4 12.3-29.6s18.2-12.3 29.6-12.3h106.7c11.7 0 21.4 4.1 29.6 12.3 8.2 7.9 12.3 17.9 12.3 29.6zm73.9-42.2h106.7c11.7 0 21.4 4.1 29.6 12.3s12.3 18.2 12.3 29.6v103.5c0 11.7-4.1 21.4-12.3 29.6s-18.2 12.3-29.6 12.3h-106.7c-11.7 0-21.4-4.1-29.6-12.3s-12.3-18.2-12.3-29.6v-103.5c0-11.7 4.1-21.4 12.3-29.6s18.1-12.3 29.6-12.3zm106.6 34.9h-106.7c-2.1 0-3.5 0.6-5 2.1s-2.1 2.9-2.1 5v103.5c0 2.1 0.6 3.5 2.1 5s2.9 2.1 5 2.1h106.7c2.1 0 3.5-0.6 5-2.1s2.1-2.9 2.1-5v-103.6c0-2.1-0.6-3.5-2.1-5-1.4-1.1-2.9-2-5-2zm315.1-34.9c11.7 0 21.4 4.1 29.6 12.3s12.3 18.2 12.3 29.6v145.4h-34.6v-145.4c0-2.1-0.6-3.5-2.1-5s-3.2-2.1-5.3-2.1h-73.9c-2.1 0-3.5 0.6-5 2.1s-2.1 2.9-2.1 5v145.4h-34.9v-145.4c0-2.1-0.6-3.5-2.1-5s-2.9-2.1-5-2.1h-74.1c-2.1 0-3.5 0.6-5 2.1s-2.1 2.9-2.1 5v145.4h-34.9v-187.3h239.2zm224.2 0c11.7 0 21.4 4.1 29.6 12.3s12.3 18.2 12.3 29.6v69.2h-155.6v34.3c0 2.1 0.6 3.5 2.1 5s2.9 2.1 5 2.1h148.6v34.9h-148.6c-11.7 0-21.4-4.1-29.6-12.3s-12.3-18.2-12.3-29.6v-103.6c0-11.7 4.1-21.4 12.3-29.6s18.2-12.3 29.6-12.3h106.6zm-113.7 76.2h120.7v-34.3c0-2.1-0.6-3.5-2.1-5s-2.9-2.1-5-2.1h-106.7c-2.1 0-3.5 0.6-5 2.1s-2.1 2.9-2.1 5l0.2 34.3z"/>
<g id="c">
	<path class="st0" d="m154.2 267.9c9.2 5.9 17.5 10.8 24.1 14.5l8.7-30.7-24.6-4.4-8.2 20.6z"/>
	<path class="st0" d="m629.2 247.3-24.6 4.4 8.2 29.1c6.7-3.8 14.9-8.7 23.9-14.5l-7.5-19z"/>
	<path class="st0" d="m147.9 390.3c-11.2-8.8-21.5-18.3-31-28.5l-37.1 93.3h-0.1l12.9 64.7c1.4 7 5.2 13.6 11 19.5 5.7 5.9 13.3 11.2 22.2 15.6 8.8 4.4 19 7.9 30 10.4 11 2.4 22.8 3.8 34.9 3.8h92.8c12.2 0 23.7-1.3 34.1-3.8 10.5-2.4 19.9-6 27.8-10.4s14.4-9.7 18.8-15.6c4.5-6 6.9-12.6 6.8-19.5l-0.7-41.9h51.1l-0.7 41.9c-0.1 7 2.3 13.6 6.8 19.5 4.4 5.9 10.8 11.2 18.8 15.6 7.9 4.4 17.3 7.9 27.8 10.4 10.4 2.4 22 3.8 34.1 3.8h92.8c12.2 0 24-1.3 34.9-3.8 11-2.4 21.2-6 30-10.4 8.9-4.4 16.5-9.7 22.2-15.6 5.7-6 9.6-12.6 11-19.5l12.9-64.7-38.1-95.7c-9.4 10.3-19.6 19.9-30.6 28.8l18.9 66.9h-532.6l18.3-64.8z"/>
</g>
<g id="d">
	<path id="e" class="st1" d="m398.6 17.6s-27.3 21.6-55.2 43c-28.7-0.9-84.9 5.5-115.3 16.6-28.1-17.8-52.7-37.4-52.7-37.4s-21.1 36.2-34.3 57.5c-19.6 10.4-39.4 22.2-56.9 37.7-20.4-8.1-44.1-18-44.9-18.3 27.1 54.6 45.3 83.8 94.8 116.7 78.8-124.5 445.2-113 525.6-0.7 52-27.1 72.2-60 92.7-113.8-2.2 0.7-30.1 10.1-48.1 16.9-10.8-11.7-36.2-29.8-50.6-38.5-13.8-25-33.7-58.9-33.7-58.9s-23.6 17.6-50.9 36.7c-37-6.8-81.6-15.1-119.2-13.1-25.6-21-51.3-44.4-51.3-44.4z"/>
	<path class="st2" d="m609.7 302.1c-23 12.6-76 20.2-76 20.2l-139.5-72.1-139.5 72.1s-53-7.6-76-20.2c-32.3-17.8-87.7-50.8-119.9-98.5 0 0 28.8 65.9 58.6 132.9 61.8 76.9 169.7 113.5 276.8 113.2 107.2 0.3 215-36.3 276.8-113.2 29.8-67.1 58.6-132.9 58.6-132.9-32.3 47.7-87.6 80.7-119.9 98.5z"/>
</g>
<path id="f" class="st1" d="m1367.7 353.8c11.7 0 21.4 4.1 29.6 12.3s12.3 18.2 12.3 29.6v162.4l-34.6-17v-145.4c0-2.1-0.6-3.5-2.1-5s-3.2-2.1-5.3-2.1h-73.9c-2.1 0-3.5 0.6-5 2.1s-2.1 2.9-2.1 5v145.4h-34.9v-145.4c0-2.1-0.6-3.5-2.1-5s-2.9-2.1-5-2.1h-74.1c-2.1 0-3.5 0.6-5 2.1s-2.1 2.9-2.1 5v145.4h-34.9v-187.3h239.2zm-507 34.9c-2.1 0-3.5 0.6-5 2.1s-2.1 2.9-2.1 5v145.4h-34.9v-187.4h148.6c11.7 0 21.4 4.1 29.6 12.3s12.3 18.2 12.3 29.6v162.4l-34.6-17v-145.4c0-2.1-0.6-3.5-2.1-5s-3.2-2.1-5.3-2.1h-106.5zm224.3-34.9v187.3h-34.9v-187.3h34.9z"/>
</svg>
